<mxfile host="app.diagrams.net" modified="2020-09-27T17:49:01.571Z" agent="5.0 (Windows NT 10.0; Win64; x64) AppleWebKit/537.36 (KHTML, like Gecko) Chrome/85.0.4183.121 Safari/537.36 Edg/85.0.564.63" etag="Bw4_xRi27QtqnUpkTyR-" version="13.7.5" type="github">
  <diagram name="Page-1" id="03018318-947c-dd8e-b7a3-06fadd420f32">
    <mxGraphModel dx="1221" dy="645" grid="1" gridSize="10" guides="1" tooltips="1" connect="1" arrows="1" fold="1" page="1" pageScale="1" pageWidth="1100" pageHeight="850" background="#ffffff" math="0" shadow="0">
      <root>
        <mxCell id="0" />
        <mxCell id="1" parent="0" />
        <mxCell id="677b7b8949515195-2" value="LOGO" style="whiteSpace=wrap;html=1;rounded=0;shadow=0;labelBackgroundColor=none;strokeWidth=1;fontFamily=Verdana;fontSize=28;align=center;comic=1;" parent="1" vertex="1">
          <mxGeometry x="40" y="15" width="190" height="50" as="geometry" />
        </mxCell>
        <mxCell id="677b7b8949515195-3" value="Search" style="strokeWidth=1;shadow=0;dashed=0;align=center;html=1;shape=mxgraph.mockup.forms.searchBox;strokeColor=#999999;mainText=;strokeColor2=#008cff;fontColor=#666666;fontSize=17;align=left;spacingLeft=3;rounded=0;labelBackgroundColor=none;comic=1;" parent="1" vertex="1">
          <mxGeometry x="320" y="110" width="220" height="30" as="geometry" />
        </mxCell>
        <mxCell id="677b7b8949515195-6" value="History" style="text;html=1;points=[];align=left;verticalAlign=top;spacingTop=-4;fontSize=16;fontFamily=Verdana" parent="1" vertex="1">
          <mxGeometry x="912.5" y="30" width="60" height="20" as="geometry" />
        </mxCell>
        <mxCell id="677b7b8949515195-9" value="" style="line;strokeWidth=1;html=1;rounded=0;shadow=0;labelBackgroundColor=none;fillColor=none;fontFamily=Verdana;fontSize=14;fontColor=#000000;align=center;comic=1;" parent="1" vertex="1">
          <mxGeometry x="20" y="80" width="1060" height="10" as="geometry" />
        </mxCell>
        <mxCell id="677b7b8949515195-10" value="" style="whiteSpace=wrap;html=1;rounded=0;shadow=0;labelBackgroundColor=none;strokeWidth=1;fillColor=none;fontFamily=Verdana;fontSize=12;align=center;comic=1;" parent="1" vertex="1">
          <mxGeometry x="30" y="100" width="1040" height="50" as="geometry" />
        </mxCell>
        <mxCell id="677b7b8949515195-11" value="&lt;font style=&quot;font-size: 20px&quot;&gt;Explore&lt;/font&gt;" style="text;html=1;points=[];align=left;verticalAlign=top;spacingTop=-4;fontSize=14;fontFamily=Verdana" parent="1" vertex="1">
          <mxGeometry x="40" y="110" width="60" height="20" as="geometry" />
        </mxCell>
        <mxCell id="0GJplUMi5tLApPQeOf5C-3" value="Cart" style="text;html=1;points=[];align=left;verticalAlign=top;spacingTop=-4;fontSize=16;fontFamily=Verdana" vertex="1" parent="1">
          <mxGeometry x="852.5" y="30" width="60" height="20" as="geometry" />
        </mxCell>
        <mxCell id="0GJplUMi5tLApPQeOf5C-4" value="lang: en/vi" style="text;html=1;points=[];align=left;verticalAlign=top;spacingTop=-4;fontSize=16;fontFamily=Verdana" vertex="1" parent="1">
          <mxGeometry x="982.5" y="30" width="80" height="20" as="geometry" />
        </mxCell>
        <mxCell id="0GJplUMi5tLApPQeOf5C-15" style="edgeStyle=orthogonalEdgeStyle;rounded=0;orthogonalLoop=1;jettySize=auto;html=1;" edge="1" parent="1" source="0GJplUMi5tLApPQeOf5C-7" target="677b7b8949515195-3">
          <mxGeometry relative="1" as="geometry" />
        </mxCell>
        <mxCell id="0GJplUMi5tLApPQeOf5C-7" value="Restaurant List" style="strokeWidth=1;shadow=0;dashed=0;align=center;html=1;shape=mxgraph.mockup.forms.comboBox;strokeColor=#999999;fillColor=#ddeeff;align=left;fillColor2=#aaddff;mainText=;fontColor=#666666;fontSize=17;spacingLeft=3;" vertex="1" parent="1">
          <mxGeometry x="140" y="110" width="160" height="30" as="geometry" />
        </mxCell>
        <mxCell id="0GJplUMi5tLApPQeOf5C-18" value="" style="verticalLabelPosition=bottom;shadow=0;dashed=0;align=center;html=1;verticalAlign=top;strokeWidth=1;shape=mxgraph.mockup.graphics.simpleIcon;strokeColor=#999999;" vertex="1" parent="1">
          <mxGeometry x="30" y="160" width="1040" height="110" as="geometry" />
        </mxCell>
        <mxCell id="0GJplUMi5tLApPQeOf5C-20" value="" style="whiteSpace=wrap;html=1;rounded=0;shadow=0;labelBackgroundColor=none;strokeWidth=1;fontFamily=Verdana;fontSize=12;align=center;comic=1;perimeterSpacing=1;" vertex="1" parent="1">
          <mxGeometry x="340" y="290" width="730" height="40" as="geometry" />
        </mxCell>
        <mxCell id="0GJplUMi5tLApPQeOf5C-32" value="" style="verticalLabelPosition=bottom;shadow=0;dashed=0;align=center;html=1;verticalAlign=top;strokeWidth=1;shape=mxgraph.mockup.navigation.pageControl;fillColor=#999999;strokeColor=#ddeeff;" vertex="1" parent="1">
          <mxGeometry x="655" y="820" width="100" height="30" as="geometry" />
        </mxCell>
        <mxCell id="0GJplUMi5tLApPQeOf5C-34" value="" style="whiteSpace=wrap;html=1;rounded=0;shadow=0;labelBackgroundColor=none;strokeWidth=1;fontFamily=Verdana;fontSize=12;align=center;comic=1;perimeterSpacing=1;" vertex="1" parent="1">
          <mxGeometry x="340" y="340" width="360" height="230" as="geometry" />
        </mxCell>
        <mxCell id="0GJplUMi5tLApPQeOf5C-37" value="" style="whiteSpace=wrap;html=1;rounded=0;shadow=0;labelBackgroundColor=none;strokeWidth=1;fontFamily=Verdana;fontSize=12;align=center;comic=1;perimeterSpacing=1;" vertex="1" parent="1">
          <mxGeometry x="30" y="290" width="300" height="520" as="geometry" />
        </mxCell>
        <mxCell id="0GJplUMi5tLApPQeOf5C-38" value="" style="verticalLabelPosition=bottom;shadow=0;dashed=0;align=center;html=1;verticalAlign=top;strokeWidth=1;shape=mxgraph.mockup.graphics.simpleIcon;strokeColor=#999999;fillColor=#ffffff;" vertex="1" parent="1">
          <mxGeometry x="350" y="350" width="200" height="140" as="geometry" />
        </mxCell>
        <mxCell id="0GJplUMi5tLApPQeOf5C-40" value="" style="verticalLabelPosition=bottom;shadow=0;dashed=0;align=center;html=1;verticalAlign=top;strokeWidth=1;shape=mxgraph.mockup.misc.rating;strokeColor=#999999;fillColor=#ffff00;emptyFillColor=#ffffff;grade=4;ratingScale=5;ratingStyle=star;" vertex="1" parent="1">
          <mxGeometry x="555" y="470" width="145" height="20" as="geometry" />
        </mxCell>
        <mxCell id="0GJplUMi5tLApPQeOf5C-41" value="Order Now &amp;gt;&amp;gt;" style="strokeWidth=1;shadow=0;dashed=0;align=center;html=1;shape=mxgraph.mockup.buttons.button;strokeColor=#666666;fontColor=#ffffff;mainText=;buttonStyle=round;fontSize=17;fontStyle=1;fillColor=#008cff;whiteSpace=wrap;" vertex="1" parent="1">
          <mxGeometry x="460" y="515" width="120" height="30" as="geometry" />
        </mxCell>
        <mxCell id="0GJplUMi5tLApPQeOf5C-42" value="&lt;div&gt;&lt;span&gt;Product&amp;nbsp;&lt;/span&gt;&lt;/div&gt;" style="text;html=1;strokeColor=none;fillColor=none;align=left;verticalAlign=middle;whiteSpace=wrap;rounded=0;strokeWidth=1;fontSize=20;fontStyle=1" vertex="1" parent="1">
          <mxGeometry x="555" y="350" width="130" height="20" as="geometry" />
        </mxCell>
        <mxCell id="0GJplUMi5tLApPQeOf5C-45" value="Lorem ipsum dolor sit amet, consectetur adipiscing elit, sed do eiusmod tempor incididunt ut labore et dolore magna aliqua.&amp;nbsp;" style="text;html=1;strokeColor=none;fillColor=none;align=left;verticalAlign=top;whiteSpace=wrap;rounded=0;fontSize=12;" vertex="1" parent="1">
          <mxGeometry x="555" y="370" width="132.5" height="100" as="geometry" />
        </mxCell>
        <mxCell id="0GJplUMi5tLApPQeOf5C-52" value="" style="whiteSpace=wrap;html=1;rounded=0;shadow=0;labelBackgroundColor=none;strokeWidth=1;fontFamily=Verdana;fontSize=12;align=center;comic=1;perimeterSpacing=1;" vertex="1" parent="1">
          <mxGeometry x="340" y="580" width="360" height="230" as="geometry" />
        </mxCell>
        <mxCell id="0GJplUMi5tLApPQeOf5C-53" value="" style="verticalLabelPosition=bottom;shadow=0;dashed=0;align=center;html=1;verticalAlign=top;strokeWidth=1;shape=mxgraph.mockup.graphics.simpleIcon;strokeColor=#999999;fillColor=#ffffff;" vertex="1" parent="1">
          <mxGeometry x="350" y="590" width="200" height="140" as="geometry" />
        </mxCell>
        <mxCell id="0GJplUMi5tLApPQeOf5C-54" value="" style="verticalLabelPosition=bottom;shadow=0;dashed=0;align=center;html=1;verticalAlign=top;strokeWidth=1;shape=mxgraph.mockup.misc.rating;strokeColor=#999999;fillColor=#ffff00;emptyFillColor=#ffffff;grade=4;ratingScale=5;ratingStyle=star;" vertex="1" parent="1">
          <mxGeometry x="555" y="710" width="145" height="20" as="geometry" />
        </mxCell>
        <mxCell id="0GJplUMi5tLApPQeOf5C-55" value="Order Now &amp;gt;&amp;gt;" style="strokeWidth=1;shadow=0;dashed=0;align=center;html=1;shape=mxgraph.mockup.buttons.button;strokeColor=#666666;fontColor=#ffffff;mainText=;buttonStyle=round;fontSize=17;fontStyle=1;fillColor=#008cff;whiteSpace=wrap;" vertex="1" parent="1">
          <mxGeometry x="460" y="755" width="120" height="30" as="geometry" />
        </mxCell>
        <mxCell id="0GJplUMi5tLApPQeOf5C-56" value="&lt;div&gt;&lt;span&gt;Product&amp;nbsp;&lt;/span&gt;&lt;/div&gt;" style="text;html=1;strokeColor=none;fillColor=none;align=left;verticalAlign=middle;whiteSpace=wrap;rounded=0;strokeWidth=1;fontSize=20;fontStyle=1" vertex="1" parent="1">
          <mxGeometry x="555" y="590" width="130" height="20" as="geometry" />
        </mxCell>
        <mxCell id="0GJplUMi5tLApPQeOf5C-57" value="Lorem ipsum dolor sit amet, consectetur adipiscing elit, sed do eiusmod tempor incididunt ut labore et dolore magna aliqua.&amp;nbsp;" style="text;html=1;strokeColor=none;fillColor=none;align=left;verticalAlign=top;whiteSpace=wrap;rounded=0;fontSize=12;" vertex="1" parent="1">
          <mxGeometry x="555" y="610" width="132.5" height="100" as="geometry" />
        </mxCell>
        <mxCell id="0GJplUMi5tLApPQeOf5C-58" value="" style="whiteSpace=wrap;html=1;rounded=0;shadow=0;labelBackgroundColor=none;strokeWidth=1;fontFamily=Verdana;fontSize=12;align=center;comic=1;perimeterSpacing=1;" vertex="1" parent="1">
          <mxGeometry x="710" y="340" width="360" height="230" as="geometry" />
        </mxCell>
        <mxCell id="0GJplUMi5tLApPQeOf5C-59" value="" style="verticalLabelPosition=bottom;shadow=0;dashed=0;align=center;html=1;verticalAlign=top;strokeWidth=1;shape=mxgraph.mockup.graphics.simpleIcon;strokeColor=#999999;fillColor=#ffffff;" vertex="1" parent="1">
          <mxGeometry x="720" y="350" width="200" height="140" as="geometry" />
        </mxCell>
        <mxCell id="0GJplUMi5tLApPQeOf5C-60" value="" style="verticalLabelPosition=bottom;shadow=0;dashed=0;align=center;html=1;verticalAlign=top;strokeWidth=1;shape=mxgraph.mockup.misc.rating;strokeColor=#999999;fillColor=#ffff00;emptyFillColor=#ffffff;grade=4;ratingScale=5;ratingStyle=star;" vertex="1" parent="1">
          <mxGeometry x="925" y="470" width="145" height="20" as="geometry" />
        </mxCell>
        <mxCell id="0GJplUMi5tLApPQeOf5C-61" value="Order Now &amp;gt;&amp;gt;" style="strokeWidth=1;shadow=0;dashed=0;align=center;html=1;shape=mxgraph.mockup.buttons.button;strokeColor=#666666;fontColor=#ffffff;mainText=;buttonStyle=round;fontSize=17;fontStyle=1;fillColor=#008cff;whiteSpace=wrap;" vertex="1" parent="1">
          <mxGeometry x="830" y="515" width="120" height="30" as="geometry" />
        </mxCell>
        <mxCell id="0GJplUMi5tLApPQeOf5C-62" value="&lt;div&gt;&lt;span&gt;Product&amp;nbsp;&lt;/span&gt;&lt;/div&gt;" style="text;html=1;strokeColor=none;fillColor=none;align=left;verticalAlign=middle;whiteSpace=wrap;rounded=0;strokeWidth=1;fontSize=20;fontStyle=1" vertex="1" parent="1">
          <mxGeometry x="925" y="350" width="130" height="20" as="geometry" />
        </mxCell>
        <mxCell id="0GJplUMi5tLApPQeOf5C-63" value="Lorem ipsum dolor sit amet, consectetur adipiscing elit, sed do eiusmod tempor incididunt ut labore et dolore magna aliqua.&amp;nbsp;" style="text;html=1;strokeColor=none;fillColor=none;align=left;verticalAlign=top;whiteSpace=wrap;rounded=0;fontSize=12;" vertex="1" parent="1">
          <mxGeometry x="925" y="370" width="132.5" height="100" as="geometry" />
        </mxCell>
        <mxCell id="0GJplUMi5tLApPQeOf5C-64" value="" style="whiteSpace=wrap;html=1;rounded=0;shadow=0;labelBackgroundColor=none;strokeWidth=1;fontFamily=Verdana;fontSize=12;align=center;comic=1;perimeterSpacing=1;" vertex="1" parent="1">
          <mxGeometry x="710" y="580" width="360" height="230" as="geometry" />
        </mxCell>
        <mxCell id="0GJplUMi5tLApPQeOf5C-65" value="" style="verticalLabelPosition=bottom;shadow=0;dashed=0;align=center;html=1;verticalAlign=top;strokeWidth=1;shape=mxgraph.mockup.graphics.simpleIcon;strokeColor=#999999;fillColor=#ffffff;" vertex="1" parent="1">
          <mxGeometry x="720" y="590" width="200" height="140" as="geometry" />
        </mxCell>
        <mxCell id="0GJplUMi5tLApPQeOf5C-66" value="" style="verticalLabelPosition=bottom;shadow=0;dashed=0;align=center;html=1;verticalAlign=top;strokeWidth=1;shape=mxgraph.mockup.misc.rating;strokeColor=#999999;fillColor=#ffff00;emptyFillColor=#ffffff;grade=4;ratingScale=5;ratingStyle=star;" vertex="1" parent="1">
          <mxGeometry x="925" y="710" width="145" height="20" as="geometry" />
        </mxCell>
        <mxCell id="0GJplUMi5tLApPQeOf5C-67" value="Order Now &amp;gt;&amp;gt;" style="strokeWidth=1;shadow=0;dashed=0;align=center;html=1;shape=mxgraph.mockup.buttons.button;strokeColor=#666666;fontColor=#ffffff;mainText=;buttonStyle=round;fontSize=17;fontStyle=1;fillColor=#008cff;whiteSpace=wrap;" vertex="1" parent="1">
          <mxGeometry x="830" y="755" width="120" height="30" as="geometry" />
        </mxCell>
        <mxCell id="0GJplUMi5tLApPQeOf5C-68" value="&lt;div&gt;&lt;span&gt;Product&amp;nbsp;&lt;/span&gt;&lt;/div&gt;" style="text;html=1;strokeColor=none;fillColor=none;align=left;verticalAlign=middle;whiteSpace=wrap;rounded=0;strokeWidth=1;fontSize=20;fontStyle=1" vertex="1" parent="1">
          <mxGeometry x="925" y="590" width="130" height="20" as="geometry" />
        </mxCell>
        <mxCell id="0GJplUMi5tLApPQeOf5C-69" value="Lorem ipsum dolor sit amet, consectetur adipiscing elit, sed do eiusmod tempor incididunt ut labore et dolore magna aliqua.&amp;nbsp;" style="text;html=1;strokeColor=none;fillColor=none;align=left;verticalAlign=top;whiteSpace=wrap;rounded=0;fontSize=12;" vertex="1" parent="1">
          <mxGeometry x="925" y="610" width="132.5" height="100" as="geometry" />
        </mxCell>
        <mxCell id="0GJplUMi5tLApPQeOf5C-70" value="Trending Food" style="text;html=1;strokeColor=none;fillColor=none;align=left;verticalAlign=top;whiteSpace=wrap;rounded=0;fontSize=22;" vertex="1" parent="1">
          <mxGeometry x="40" y="300" width="280" height="40" as="geometry" />
        </mxCell>
        <mxCell id="0GJplUMi5tLApPQeOf5C-71" value="" style="verticalLabelPosition=bottom;shadow=0;dashed=0;align=center;html=1;verticalAlign=top;strokeWidth=1;shape=mxgraph.mockup.graphics.simpleIcon;strokeColor=#999999;fillColor=#ffffff;" vertex="1" parent="1">
          <mxGeometry x="40" y="390" width="280" height="140" as="geometry" />
        </mxCell>
        <mxCell id="0GJplUMi5tLApPQeOf5C-72" value="" style="verticalLabelPosition=bottom;shadow=0;dashed=0;align=center;html=1;verticalAlign=top;strokeWidth=1;shape=mxgraph.mockup.misc.rating;strokeColor=#999999;fillColor=#ffff00;emptyFillColor=#ffffff;grade=4;ratingScale=5;ratingStyle=star;" vertex="1" parent="1">
          <mxGeometry x="42.5" y="545" width="145" height="20" as="geometry" />
        </mxCell>
        <mxCell id="0GJplUMi5tLApPQeOf5C-73" value="&lt;div&gt;&lt;span&gt;Product&amp;nbsp;&lt;/span&gt;&lt;/div&gt;" style="text;html=1;strokeColor=none;fillColor=none;align=left;verticalAlign=middle;whiteSpace=wrap;rounded=0;strokeWidth=1;fontSize=20;fontStyle=1" vertex="1" parent="1">
          <mxGeometry x="42.5" y="360" width="130" height="20" as="geometry" />
        </mxCell>
        <mxCell id="0GJplUMi5tLApPQeOf5C-74" value="Lorem ipsum dolor sit amet, consectetur adipiscing elit, sed do eiusmod tempor incididunt ut labore et dolore magna aliqua. Ut enim ad minim veniam, quis nostrud exercitation ullamco laboris nisi ut aliquip ex ea commodo consequat. Duis aute irure dolor in reprehenderit in voluptate velit esse cillum dolore eu fugiat nulla pariatur. Excepteur sint occaecat cupidatat non proident, sunt in culpa qui officia deserunt mollit anim id est laborum." style="text;html=1;strokeColor=none;fillColor=none;align=left;verticalAlign=top;whiteSpace=wrap;rounded=0;fontSize=12;" vertex="1" parent="1">
          <mxGeometry x="40" y="580" width="280" height="120" as="geometry" />
        </mxCell>
        <mxCell id="0GJplUMi5tLApPQeOf5C-77" value="Order Now &amp;gt;&amp;gt;" style="strokeWidth=1;shadow=0;dashed=0;align=center;html=1;shape=mxgraph.mockup.buttons.button;strokeColor=#666666;fontColor=#ffffff;mainText=;buttonStyle=round;fontSize=17;fontStyle=1;fillColor=#008cff;whiteSpace=wrap;" vertex="1" parent="1">
          <mxGeometry x="120" y="755" width="120" height="30" as="geometry" />
        </mxCell>
        <mxCell id="0GJplUMi5tLApPQeOf5C-78" value="Today Foods" style="text;html=1;strokeColor=none;fillColor=none;align=left;verticalAlign=top;whiteSpace=wrap;rounded=0;fontSize=22;" vertex="1" parent="1">
          <mxGeometry x="350" y="290" width="280" height="40" as="geometry" />
        </mxCell>
        <mxCell id="0GJplUMi5tLApPQeOf5C-80" value="Option 1" style="strokeWidth=1;shadow=0;dashed=0;align=center;html=1;shape=mxgraph.mockup.forms.comboBox;strokeColor=#999999;fillColor=#ddeeff;align=left;fillColor2=#aaddff;mainText=;fontColor=#666666;fontSize=17;spacingLeft=3;" vertex="1" parent="1">
          <mxGeometry x="830" y="295" width="150" height="30" as="geometry" />
        </mxCell>
        <mxCell id="0GJplUMi5tLApPQeOf5C-81" value="Sort" style="strokeWidth=1;shadow=0;dashed=0;align=center;html=1;shape=mxgraph.mockup.buttons.button;strokeColor=#666666;fontColor=#ffffff;mainText=;buttonStyle=round;fontSize=17;fontStyle=1;fillColor=#008cff;whiteSpace=wrap;" vertex="1" parent="1">
          <mxGeometry x="997.5" y="292.5" width="65" height="35" as="geometry" />
        </mxCell>
        <mxCell id="0GJplUMi5tLApPQeOf5C-82" value="&lt;b&gt;Login&lt;/b&gt;" style="text;html=1;points=[];align=left;verticalAlign=top;spacingTop=-4;fontSize=16;fontFamily=Verdana" vertex="1" parent="1">
          <mxGeometry x="780" y="30" width="60" height="20" as="geometry" />
        </mxCell>
      </root>
    </mxGraphModel>
  </diagram>
</mxfile>
